<?xml version="1.0" encoding="utf-8"?>
<!-- Generator: Adobe Illustrator 17.0.0, SVG Export Plug-In . SVG Version: 6.00 Build 0)  -->
<!DOCTYPE svg PUBLIC "-//W3C//DTD SVG 1.1//EN" "http://www.w3.org/Graphics/SVG/1.1/DTD/svg11.dtd">
<svg version="1.1" xmlns="http://www.w3.org/2000/svg" xmlns:xlink="http://www.w3.org/1999/xlink" x="0px" y="0px"
	 width="595.28px" height="841.89px" viewBox="0 0 595.28 841.89" enable-background="new 0 0 595.28 841.89" xml:space="preserve">
<g id="Calque_1" display="none">
	<g display="inline">
		<g>
			<path fill="#000BD3" d="M272.774,480.607c-18.221-19.025-36.258-38.394-50.337-60.775c-13.016-20.69-21.025-43.318-22.493-67.772
				c-1.25-20.819,2.71-48.808,23.75-58.87c10.673-5.104,23.136-1.44,31.294,6.394c9.58,9.198,11.73,23.153,12.821,35.75
				c0.4,4.613,6.8,7.257,9.317,2.524c10.096-18.981,21.087-43.296,45.308-45.848c11.218-1.182,22.265,3.079,29.754,11.454
				c9.233,10.325,8.439,24.684,4.111,36.881c-4.455,12.556-13.372,23.672-21.772,33.804c-9.437,11.383-19.819,21.944-29.257,33.329
				c-18.251,22.015-29.952,47.831-37.283,75.336c-1.663,6.239,7.984,8.884,9.643,2.658c7.588-28.472,20.026-53.938,39.284-76.337
				c18.037-20.979,40.091-40.948,49.566-67.65c8.52-24.011-2.346-49.681-26.982-57.66c-10.53-3.411-22.541-2.322-32.578,2.134
				c-10.534,4.677-18.24,13.279-24.647,22.62c-5.258,7.666-9.426,16.04-13.782,24.231c3.106,0.841,6.212,1.682,9.317,2.524
				c-1.121-12.939-3.21-25.909-10.732-36.824c-6.998-10.155-17.814-16.394-30.025-17.519c-25.481-2.346-40.872,21.986-45.355,43.802
				c-10.847,52.776,18.839,101.694,52.297,139.555c7.035,7.96,14.361,15.659,21.708,23.33
				C270.17,492.343,277.232,485.263,272.774,480.607L272.774,480.607z"/>
		</g>
	</g>
</g>
<g id="Calque_1_-_copie" display="none">
	<g display="inline">
		<g>
			<path fill="#000BD3" d="M277.975,481.017c-19.171-18.026-38.284-36.423-53.501-58.015c-14.45-20.505-23.916-43.45-26.342-68.507
				c-2.003-20.683,1.191-51.278,24.012-59.571c11.082-4.027,22.508,0.008,30.508,8.12c8.768,8.891,11.09,22.188,12.745,34.045
				c0.59,4.23,7.404,4.913,9.139,1.194c9.277-19.888,18.675-43.723,42.723-48.349c10.422-2.005,21.751,1.549,29.43,8.715
				c10.064,9.394,11.085,23.367,7.689,35.946c-3.445,12.759-11.353,24.086-18.991,34.669c-8.651,11.986-18.482,23.084-27.453,34.828
				c-17.847,23.364-28.698,50.302-34.748,78.943c-1.329,6.29,8.31,8.966,9.643,2.658c6.222-29.457,17.643-55.96,36.209-79.751
				c16.904-21.662,38.048-42.997,45.402-70.24c6.581-24.378-6.238-49.275-31.35-55.109c-10.977-2.55-22.422-0.51-32.365,4.543
				c-10.119,5.143-17.391,14.863-23.05,24.394c-4.505,7.588-8.049,15.718-11.773,23.703c3.046,0.398,6.092,0.796,9.139,1.194
				c-1.722-12.336-4.495-24.867-12.314-34.899c-7.467-9.579-18.061-15.468-30.221-16.16c-25.436-1.447-40.037,22.898-43.636,44.914
				c-8.751,53.529,23.545,101.38,59.137,137.639c7.442,7.581,15.161,14.886,22.899,22.162
				C275.597,492.501,282.682,485.443,277.975,481.017L277.975,481.017z"/>
		</g>
	</g>
	<g display="inline">
		<g>
			<path fill="#000BD3" d="M182.613,450.394c-19.188,4.049-36.273,14.438-55.461,18.487c-6.308,1.331-3.632,10.97,2.658,9.643
				c19.188-4.049,36.273-14.438,55.461-18.487C191.579,458.706,188.903,449.066,182.613,450.394L182.613,450.394z"/>
		</g>
	</g>
	<g display="inline">
		<g>
			<path fill="#000BD3" d="M330.798,251.838c4.783-8.592,10.413-16.667,15.31-25.192c5.003-8.71,8.791-18.161,13.321-27.125
				c2.901-5.74-5.725-10.804-8.635-5.047c-4.266,8.44-8.153,17.064-12.419,25.504c-4.702,9.303-11.141,17.705-16.212,26.813
				C319.024,252.431,327.662,257.472,330.798,251.838L330.798,251.838z"/>
		</g>
	</g>
	<g display="inline">
		<g>
			<path fill="#000BD3" d="M337.261,458.087c11.404,11.409,21.046,24.238,32.3,35.761c4.512,4.62,11.578-2.457,7.071-7.071
				c-11.249-11.517-20.901-24.357-32.3-35.761C339.769,446.451,332.698,453.523,337.261,458.087L337.261,458.087z"/>
		</g>
	</g>
	<g display="inline">
		<g>
			<path fill="#000BD3" d="M183.984,267.596c-12.515-10.794-19.485-26.312-32.3-36.915c-4.928-4.077-12.044,2.956-7.071,7.071
				c12.802,10.592,19.774,26.111,32.3,36.915C181.769,278.856,188.875,271.815,183.984,267.596L183.984,267.596z"/>
		</g>
	</g>
</g>
<g id="Calque_1_-_copie_2" display="none">
	<g display="inline">
		<g>
			<path fill="#000BD3" d="M222.436,381.439c-8.444-10.13-18.064-21.181-21.345-34.244c-3.673-14.621,2.219-26.869,6.747-40.34
				c1.835-5.459,3.492-10.971,5.504-16.37c0.972-2.608,2.13-5.118,3.436-7.573c0.606-1.14,2.435-4.845,3.492-5.158
				c1.855-0.55,3.901-0.525,5.816-0.554c0.733-0.011,1.514-0.005,2.234,0.134c-3.318-0.641-1.99-4.413-2.608-1.343
				c-0.402,1.996-1.05,3.95-1.59,5.911c-0.199,0.724-0.357,1.447-0.476,2.187c-0.61,3.805,0.283-0.508-0.253,1.2
				c-3.571,11.376-21.657,73.145,3.943,69.095c6.111-0.967,8.65-7.872,11.582-12.187c3.787-5.573,5.681-12.39,7.801-18.707
				c4.646-13.84,7.67-28.641,14.354-41.698c0.979-1.914,2.292-3.945,4.043-5.243c1.939-1.438,2.785,2.155,3.185,3.516
				c1.628,5.54,0.011,12.067-1.441,17.462c-3.587,13.326-9.426,25.523-14.32,38.37c-2.846,7.473-5.067,22.085,5.132,25.359
				c10.964,3.52,21.16-6.432,26.501-14.79c7.27-11.376,7.929-24.679,9.867-37.623c1.662-11.099,4.777-25.455,14.815-32.061
				c5.278-3.473,2.951,6.168,2.687,8.938c-0.598,6.263-2.365,12.451-4.156,18.459c-3.43,11.508-5.7,23.159-8.668,34.776
				c-5.765,22.559-23.334,44.465-46.281,50.539c-6.229,1.649-3.583,11.295,2.658,9.643c11.763-3.113,22.447-9.041,30.605-18.206
				c9.724-10.925,18.188-23.418,22.2-37.602c1.772-6.263,2.93-12.683,4.31-19.039c1.509-6.952,3.738-13.663,5.71-20.486
				c1.881-6.506,3.15-13.131,3.793-19.871c0.511-5.356,1.053-13.169-4.482-16.336c-10.119-5.79-20.295,4.87-24.91,12.984
				c-6.262,11.01-7.87,24.444-9.394,36.776c-1.478,11.966-4.915,25.94-15.816,32.851c-0.982,0.623-4.905,2.638-6.081,1.723
				c-1.122-0.873-0.855-3.425-0.85-4.624c0.026-6.589,3.674-13.098,6.261-18.998c5.048-11.513,9.841-23.668,11.778-36.16
				c1.273-8.214,0.632-26.429-11.766-26.089c-11.538,0.316-16.212,14.676-19.477,23.552c-5.04,13.699-7.891,28.213-13.586,41.683
				c-1.241,2.935-3.513,5.497-4.561,8.453c-0.652,1.839-2.995,4.938-4.241,4.926c0.284,0.003,1.432,0.56,0.563,0.076
				c1.027,0.572-0.282-0.54,0.307,0.289c-0.586-0.825-0.673-1.377-0.992-2.822c-1.402-6.351-0.058-13.897,0.906-20.26
				c1.844-12.169,5.707-25.392,8.182-36.562c0.982-4.432,3.879-10.071,1.554-14.517c-2.522-4.823-9.96-3.88-14.411-3.287
				c-12.804,1.707-16.935,19.475-20.305,29.848c-5.062,15.579-12.327,30.074-9.919,46.946c2.468,17.294,14.045,31.109,24.895,44.125
				C219.498,393.468,226.533,386.354,222.436,381.439L222.436,381.439z"/>
		</g>
	</g>
	<g display="inline">
		<g>
			<path fill="#000BD3" d="M244.336,393.227c-9.227,63.338-16.151,127.226-32.239,189.318c-3.146,12.141-4.359,24.721-7.136,36.952
				c-1.322,5.82-2.988,11.635-5.492,17.063c-2.229,4.833-7.047,4.87-8.649-0.352c-3.823-12.461-0.884-27.895,0.371-40.599
				c1.546-15.649,4.389-31.069,7.564-46.456c5.757-27.899,14.189-55.16,20.935-82.82c6.737-27.626,8.669-55.574,7.244-83.928
				c-0.323-6.417-10.324-6.448-10,0c0.77,15.314,0.749,30.618-0.683,45.894c-1.482,15.803-5.067,31.189-8.994,46.533
				c-7.813,30.529-16.593,60.733-22.081,91.808c-2.596,14.702-4.127,29.513-5.278,44.388c-0.851,11.006-2.705,27.347,5.797,35.983
				c3.293,3.344,8.273,3.744,12.587,2.73c5.135-1.207,8.303-4.84,10.408-9.401c5.282-11.45,7.319-24.158,9.424-36.489
				c2.678-15.688,6.866-30.975,10.269-46.514c3.831-17.491,7.014-35.119,9.909-52.787c5.919-36.118,10.412-72.45,15.688-108.663
				C254.897,389.58,245.263,386.865,244.336,393.227L244.336,393.227z"/>
		</g>
	</g>
	<g display="inline">
		<g>
			<path fill="#000BD3" d="M327.699,664.716c13.678-63.789,26.444-128.292,45.809-190.655c9.498-30.587,20.305-60.748,30.927-90.957
				c5.308-15.096,10.61-30.198,15.063-45.573c4.014-13.861,8.432-29.202,8.137-43.744c-0.202-9.958-4.359-21.092-15.477-22.367
				c-8.774-1.006-17.609,3.895-24.67,8.552c-20.415,13.466-37.161,33.834-49.549,54.668c-7.313,12.299-12.82,25.183-14.299,39.521
				c-1.535,14.885,3.934,28.732,8.901,42.41c10.845,29.866,3.443,63.47-4.696,93.083c-8.774,31.923-21.457,62.605-30.515,94.405
				c-3.92,13.761-9.749,29.506-4.95,43.814c3.848,11.473,15.675,15.632,26.163,18.905c6.173,1.927,8.793-7.728,2.658-9.643
				c-4.842-1.511-9.619-3.003-13.942-5.719c-5.716-3.593-6.507-9.835-6.468-16.049c0.046-7.373,1.887-14.622,4.169-21.584
				c2.487-7.585,4.425-15.345,6.982-22.923c10.011-29.67,20.853-59.15,28.437-89.571c7.397-29.674,11.633-61.421,0.576-90.692
				c-5.446-14.416-9.471-28.425-6.063-43.878c3.084-13.981,10.989-26.831,19.032-38.492c8.066-11.694,17.753-22.276,28.443-31.613
				c6.459-5.642,13.468-11.13,21.615-14.087c3.039-1.103,6.7-2.028,9.675-0.335c4.808,2.736,4.123,12.365,3.891,16.84
				c-0.367,7.075-2.397,14.141-3.896,21.038c-1.761,8.108-4.105,16.086-6.564,24.006c-9.476,30.527-20.951,60.439-31.249,90.695
				c-10.435,30.658-19.569,61.548-27.426,92.964c-11.138,44.536-20.736,89.441-30.36,134.323
				C316.707,668.346,326.347,671.02,327.699,664.716L327.699,664.716z"/>
		</g>
	</g>
</g>
<g id="Calque_4">
	<g>
		<g>
			<path fill="#000BD3" d="M215.607,386.337c17.2-6.122,34.391-11.961,52.447-14.861c9-1.446,17.693-3.714,26.367-6.503
				c7.83-2.518,14.714-6.871,22.376-9.631c6.019-2.169,3.423-11.834-2.658-9.643c-7.098,2.557-13.498,6.533-20.636,9.047
				c-8.557,3.014-17.376,5.273-26.313,6.792c-9.274,1.577-18.132,3.397-27.153,6.121c-9.113,2.752-18.121,5.843-27.088,9.034
				C206.919,378.841,209.516,388.505,215.607,386.337L215.607,386.337z"/>
		</g>
	</g>
	<g>
		<g>
			<path fill="#000BD3" d="M215.19,387.427c12.334,0.014,24.66,0.293,36.97,1.098c11.979,0.783,23.756,2.701,35.662,4.08
				c11.688,1.354,23.267,1.547,34.957,0.073c11.245-1.418,22.058-4.926,32.55-9.135c9.873-3.961,20.202-7.678,29.3-13.256
				c2.766-1.696,7.477-4.384,8.134-7.953c0.797-4.33-1.367-8.083-5.771-9.341c-4.454-1.272-9.018-1.382-13.619-1.259
				c-5.762,0.154-11.425-0.126-17.179-0.496c-12.025-0.772-23.962-2.076-35.75-4.626c-6.287-1.36-8.96,8.279-2.658,9.643
				c19.264,4.168,39.098,5.629,58.761,5.42c2.158-0.023,4.27,0.128,6.384,0.56c0.987-3.085,0.752-3.871-0.703-2.356
				c-0.865,0.617-1.747,1.208-2.645,1.775c-3.883,2.526-8.142,4.531-12.422,6.278c-9.291,3.793-18.524,7.779-28.104,10.832
				c-19.993,6.372-40.215,5.566-60.723,2.523c-20.894-3.1-42.048-3.834-63.143-3.858C208.741,377.42,208.741,387.42,215.19,387.427
				L215.19,387.427z"/>
		</g>
	</g>
	<g>
		<g>
			<path fill="#000BD3" d="M207.455,386.074c0,12.699,0,25.399,0,38.098c0,6.086-0.109,12.184,0.156,18.266
				c0.271,6.207,1.658,12.135,1.667,18.389c0.009,6.448,10.009,6.449,10,0c-0.008-5.722-1.014-11.033-1.553-16.679
				c-0.571-5.988-0.27-12.105-0.27-18.112c0-13.321,0-26.641,0-39.962C217.455,379.625,207.455,379.625,207.455,386.074
				L207.455,386.074z"/>
		</g>
	</g>
	<g>
		<g>
			<path fill="#000BD3" d="M313.202,391.543c0,13.747,0,27.495,0,41.242c0,6.972,0.294,14.009-0.336,20.958
				c-0.63,6.945-1.424,13.436,0.515,20.263c1.759,6.193,11.408,3.558,9.643-2.658c-1.837-6.466-0.581-12.938,0.014-19.498
				c0.57-6.287,0.164-12.756,0.164-19.065c0-13.747,0-27.495,0-41.242C323.202,385.095,313.202,385.095,313.202,391.543
				L313.202,391.543z"/>
		</g>
	</g>
	<g>
		<g>
			<path fill="#000BD3" d="M382.485,364.195c0,14.28,0,28.561,0,42.841c0,13.71-0.912,27.301-0.912,41.027c0,6.449,10,6.449,10,0
				c0-13.117,0.912-26.105,0.912-39.2c0-14.89,0-29.78,0-44.669C392.485,357.746,382.485,357.746,382.485,364.195L382.485,364.195z"
				/>
		</g>
	</g>
	<g>
		<g>
			<path fill="#000BD3" d="M217.455,384.25c1.078-9.107-0.641-18.317-1.73-27.351c-1.164-9.662-2.701-19.277-4.092-28.907
				c-2.863-19.81-4.206-39.516-4.206-59.518c0-6.449-10-6.449-10,0c0,19.008,1.197,37.734,3.78,56.578
				c1.373,10.015,2.989,19.996,4.289,30.021c1.242,9.572,3.101,19.522,1.958,29.176C206.698,390.646,216.706,390.573,217.455,384.25
				L217.455,384.25z"/>
		</g>
	</g>
	<g>
		<g>
			<path fill="#000BD3" d="M203.756,273.296c16.623-6.393,33.019-12.749,50.595-15.953c8.38-1.528,16.54-3.395,24.599-6.173
				c7.425-2.56,14.862-5.46,22.843-5.044c6.447,0.336,6.415-9.665,0-10c-7.702-0.402-15.052,1.809-22.261,4.275
				c-8.57,2.932-17.042,5.305-25.96,6.956c-18.263,3.381-35.18,9.645-52.475,16.296
				C195.144,265.943,197.727,275.615,203.756,273.296L203.756,273.296z"/>
		</g>
	</g>
	<g>
		<g>
			<path fill="#000BD3" d="M297.705,240.215c0,9.36,0,18.72,0,28.081c0,4.427,0.416,8.353,1.647,12.616
				c1.365,4.727,1.362,9.055,1.709,13.921c0.673,9.424,1.862,18.866,2.113,28.34c0.247,9.313,1.993,16.963,6.152,25.314
				c2.875,5.773,11.5,0.706,8.635-5.047c-1.729-3.471-3.184-6.864-4.054-10.657c-1.005-4.381-0.596-8.885-0.914-13.336
				c-0.31-4.344-0.711-8.578-0.752-12.943c-0.049-5.147-1.245-10.149-1.345-15.269c-0.154-7.923-3.192-15.064-3.192-22.938
				c0-9.36,0-18.72,0-28.081C307.705,233.766,297.705,233.766,297.705,240.215L297.705,240.215z"/>
		</g>
	</g>
	<g>
		<g>
			<path fill="#000BD3" d="M205.579,314.319c8.285-3.124,16.968-6.064,25.639-7.861c8.142-1.688,15.556-5.466,23.246-8.434
				c3.697-1.427,7.598-1.916,11.367-3.062c4.113-1.251,7.964-3.321,12.011-4.765c7.413-2.644,15.004-5.584,22.545-7.784
				c6.178-1.802,3.547-11.453-2.658-9.643c-7.6,2.217-14.963,5.423-22.545,7.784c-3.597,1.12-7.004,2.87-10.51,4.236
				c-4.159,1.62-8.646,2.114-12.868,3.592c-7.791,2.726-15.068,6.79-23.246,8.434c-8.668,1.743-17.37,4.743-25.639,7.861
				C196.946,306.929,199.534,316.599,205.579,314.319L205.579,314.319z"/>
		</g>
	</g>
</g>
</svg>
