<?xml version="1.0" encoding="utf-8"?>
<!-- Generator: Adobe Illustrator 17.0.0, SVG Export Plug-In . SVG Version: 6.00 Build 0)  -->
<!DOCTYPE svg PUBLIC "-//W3C//DTD SVG 1.1//EN" "http://www.w3.org/Graphics/SVG/1.1/DTD/svg11.dtd">
<svg version="1.1" xmlns="http://www.w3.org/2000/svg" xmlns:xlink="http://www.w3.org/1999/xlink" x="0px" y="0px"
	 width="595.28px" height="841.89px" viewBox="0 0 595.28 841.89" enable-background="new 0 0 595.28 841.89" xml:space="preserve">
<g id="Calque_1">
	<g>
		<g>
			<path fill="#000BD3" d="M272.774,480.607c-18.221-19.025-36.258-38.394-50.337-60.775c-13.016-20.69-21.025-43.318-22.493-67.772
				c-1.25-20.819,2.71-48.808,23.75-58.87c10.673-5.104,23.136-1.44,31.294,6.394c9.58,9.198,11.73,23.153,12.821,35.75
				c0.4,4.613,6.8,7.257,9.317,2.524c10.096-18.981,21.087-43.296,45.308-45.848c11.218-1.182,22.265,3.079,29.754,11.454
				c9.233,10.325,8.439,24.684,4.111,36.881c-4.455,12.556-13.372,23.672-21.772,33.804c-9.437,11.383-19.819,21.944-29.257,33.329
				c-18.251,22.015-29.952,47.831-37.283,75.336c-1.663,6.239,7.984,8.884,9.643,2.658c7.588-28.472,20.026-53.938,39.284-76.337
				c18.037-20.979,40.091-40.948,49.566-67.65c8.52-24.011-2.346-49.681-26.982-57.66c-10.53-3.411-22.541-2.322-32.578,2.134
				c-10.534,4.677-18.24,13.279-24.647,22.62c-5.258,7.666-9.426,16.04-13.782,24.231c3.106,0.841,6.212,1.682,9.317,2.524
				c-1.121-12.939-3.21-25.909-10.732-36.824c-6.998-10.155-17.814-16.394-30.025-17.519c-25.481-2.346-40.872,21.986-45.355,43.802
				c-10.847,52.776,18.839,101.694,52.297,139.555c7.035,7.96,14.361,15.659,21.708,23.33
				C270.17,492.343,277.232,485.263,272.774,480.607L272.774,480.607z"/>
		</g>
	</g>
</g>
<g id="Calque_1_-_copie" display="none">
	<g display="inline">
		<g>
			<path fill="#000BD3" d="M277.975,481.017c-19.171-18.026-38.284-36.423-53.501-58.015c-14.45-20.505-23.916-43.45-26.342-68.507
				c-2.003-20.683,1.191-51.278,24.012-59.571c11.082-4.027,22.508,0.008,30.508,8.12c8.768,8.891,11.09,22.188,12.745,34.045
				c0.59,4.23,7.404,4.913,9.139,1.194c9.277-19.888,18.675-43.723,42.723-48.349c10.422-2.005,21.751,1.549,29.43,8.715
				c10.064,9.394,11.085,23.367,7.689,35.946c-3.445,12.759-11.353,24.086-18.991,34.669c-8.651,11.986-18.482,23.084-27.453,34.828
				c-17.847,23.364-28.698,50.302-34.748,78.943c-1.329,6.29,8.31,8.966,9.643,2.658c6.222-29.457,17.643-55.96,36.209-79.751
				c16.904-21.662,38.048-42.997,45.402-70.24c6.581-24.378-6.238-49.275-31.35-55.109c-10.977-2.55-22.422-0.51-32.365,4.543
				c-10.119,5.143-17.391,14.863-23.05,24.394c-4.505,7.588-8.049,15.718-11.773,23.703c3.046,0.398,6.092,0.796,9.139,1.194
				c-1.722-12.336-4.495-24.867-12.314-34.899c-7.467-9.579-18.061-15.468-30.221-16.16c-25.436-1.447-40.037,22.898-43.636,44.914
				c-8.751,53.529,23.545,101.38,59.137,137.639c7.442,7.581,15.161,14.886,22.899,22.162
				C275.597,492.501,282.682,485.443,277.975,481.017L277.975,481.017z"/>
		</g>
	</g>
	<g display="inline">
		<g>
			<path fill="#000BD3" d="M217.794,253.246c-0.006-7.795-0.752-14.867-4.118-21.992c-2.753-5.828-11.373-0.749-8.635,5.047
				c2.568,5.435,2.749,11.043,2.753,16.945C207.799,259.695,217.799,259.695,217.794,253.246L217.794,253.246z"/>
		</g>
	</g>
	<g display="inline">
		<g>
			<path fill="#000BD3" d="M293.378,241.794c0-8.398,0-16.796,0-25.195c0-6.449-10-6.449-10,0c0,8.398,0,16.796,0,25.195
				C283.378,248.243,293.378,248.243,293.378,241.794L293.378,241.794z"/>
		</g>
	</g>
	<g display="inline">
		<g>
			<path fill="#000BD3" d="M372.86,256.915c1.4-1.839,4.368-2.473,6.438-3.141c3.401-1.097,6.669-2.548,10.042-3.723
				c6.049-2.107,3.448-11.77-2.658-9.643c-4.303,1.499-8.552,3.152-12.852,4.666c-3.975,1.4-7.051,3.438-9.605,6.794
				C360.318,257.002,369.01,261.975,372.86,256.915L372.86,256.915z"/>
		</g>
	</g>
	<g display="inline">
		<g>
			<path fill="#000BD3" d="M394.883,307.49c6.871,0,13.743,0,20.614,0c6.449,0,6.449-10,0-10c-6.871,0-13.743,0-20.614,0
				C388.434,297.49,388.434,307.49,394.883,307.49L394.883,307.49z"/>
		</g>
	</g>
	<g display="inline">
		<g>
			<path fill="#000BD3" d="M401.57,357.701c6.639,2.308,12.825,5.707,19.469,8.017c6.108,2.123,8.709-7.539,2.658-9.643
				c-6.639-2.308-12.825-5.707-19.469-8.016C398.121,345.935,395.519,355.597,401.57,357.701L401.57,357.701z"/>
		</g>
	</g>
	<g display="inline">
		<g>
			<path fill="#000BD3" d="M390.302,432.318c7.089,0.283,13.428,4.294,20.614,4.581c6.451,0.258,6.426-9.743,0-10
				c-7.089-0.283-13.428-4.294-20.614-4.581C383.851,422.061,383.876,432.062,390.302,432.318L390.302,432.318z"/>
		</g>
	</g>
	<g display="inline">
		<g>
			<path fill="#000BD3" d="M367.157,471.021c1.523,3.835,3.846,6.884,6.673,9.866c0.736,0.959,0.943,1.093,0.621,0.402
				c0.431,1.128,0.971,2.18,1.566,3.227c1.205,2.122,2.859,4.016,4.242,6.023c3.632,5.272,12.304,0.279,8.635-5.047
				c-2.092-3.037-3.881-6.013-5.726-9.162c-1.729-2.952-5.047-4.643-6.367-7.967C374.45,462.443,364.775,465.021,367.157,471.021
				L367.157,471.021z"/>
		</g>
	</g>
	<g display="inline">
		<g>
			<path fill="#000BD3" d="M334.913,506.338c0,2.672,0,5.344,0,8.016c0,3.37,1.51,6.449,2.973,9.395
				c2.868,5.776,11.493,0.709,8.635-5.047c-1.004-2.023-1.608-3.629-1.608-5.887c0-2.159,0-4.318,0-6.477
				C344.913,499.889,334.913,499.889,334.913,506.338L334.913,506.338z"/>
		</g>
	</g>
	<g display="inline">
		<g>
			<path fill="#000BD3" d="M283.378,520.081c0,5.726,0,11.452,0,17.178c0,6.449,10,6.449,10,0c0-5.726,0-11.452,0-17.178
				C293.378,513.632,283.378,513.632,283.378,520.081L283.378,520.081z"/>
		</g>
	</g>
	<g display="inline">
		<g>
			<path fill="#000BD3" d="M233.308,508.529c-3.656,4.651-9.141,8.816-14.972,10.166c-6.281,1.455-3.617,11.097,2.658,9.643
				c7.331-1.698,14.761-6.857,19.385-12.738c1.683-2.141,2.098-4.973,0-7.071C238.625,506.774,234.995,506.382,233.308,508.529
				L233.308,508.529z"/>
		</g>
	</g>
	<g display="inline">
		<g>
			<path fill="#000BD3" d="M201.158,464.87c-4.553,1.105-8.221,3.693-12.519,5.36c-4.332,1.681-8.552,3.369-12.725,5.451
				c-5.771,2.879-0.705,11.504,5.047,8.635c3.779-1.885,7.594-3.379,11.518-4.901c3.897-1.512,7.229-3.905,11.337-4.902
				C210.082,472.993,207.424,463.35,201.158,464.87L201.158,464.87z"/>
		</g>
	</g>
	<g display="inline">
		<g>
			<path fill="#000BD3" d="M173.857,420.028c-4.53,0.169-8.908,1.168-13.354,1.974c-5.268,0.955-11.089,0.316-16.422,0.316
				c-6.449,0-6.449,10,0,10c4.767,0,9.551,0.114,14.315-0.064c5.222-0.195,10.232-2.031,15.46-2.226
				C180.285,429.788,180.308,419.787,173.857,420.028L173.857,420.028z"/>
		</g>
	</g>
	<g display="inline">
		<g>
			<path fill="#000BD3" d="M161.26,382.236c-9.08-0.323-17.163-5.4-26.34-5.726c-6.452-0.229-6.429,9.771,0,10
				c9.08,0.323,17.163,5.4,26.34,5.726C167.711,392.466,167.689,382.465,161.26,382.236L161.26,382.236z"/>
		</g>
	</g>
	<g display="inline">
		<g>
			<path fill="#000BD3" d="M162.638,335.965c-8.576-4.299-15.131-10.554-22.904-16.033c-5.285-3.725-10.273,4.951-5.047,8.635
				c7.79,5.491,14.294,11.717,22.904,16.033C163.338,347.481,168.404,338.855,162.638,335.965L162.638,335.965z"/>
		</g>
	</g>
	<g display="inline">
		<g>
			<path fill="#000BD3" d="M177.526,282.14c-7.595-4.609-11.837-13.117-17.311-19.832c-4.077-5.001-11.108,2.119-7.071,7.071
				c6.16,7.556,10.758,16.191,19.335,21.396C178.007,294.129,183.029,285.479,177.526,282.14L177.526,282.14z"/>
		</g>
	</g>
</g>
<g id="Calque_1_-_copie_2" display="none">
	<g display="inline">
		<g>
			<path fill="#000BD3" d="M276.23,480.958c-18.861-18.366-37.62-37.091-52.462-58.953c-13.82-20.356-22.75-42.916-24.982-67.493
				c-1.845-20.321,1.13-50.608,22.895-59.792c11.073-4.672,22.971-1.318,31.362,6.824c9.057,8.787,11.565,22.105,13.027,34.106
				c0.534,4.385,6.885,7.51,9.317,2.524c9.641-19.761,19.44-43.332,43.6-47.543c10.465-1.824,21.712,2.027,29.25,9.312
				c9.899,9.568,10.583,23.605,6.976,36.096c-3.662,12.682-11.803,23.889-19.614,34.324c-8.958,11.966-19.158,22.956-28.366,34.727
				c-18.03,23.05-29.268,49.534-35.79,77.95c-1.441,6.277,8.2,8.943,9.643,2.658c6.74-29.362,18.648-55.612,37.633-79.084
				c17.286-21.371,38.752-42.342,46.583-69.459c7.017-24.297-5.517-49.324-30.492-55.588c-10.937-2.743-22.41-0.83-32.431,4.045
				c-10.204,4.964-17.621,14.596-23.441,24.02c-4.637,7.509-8.322,15.575-12.185,23.494c3.106,0.841,6.212,1.682,9.317,2.524
				c-1.518-12.461-3.84-24.897-11.139-35.403c-7.025-10.112-17.774-16.373-29.964-17.584c-25.735-2.557-41.121,22.092-45.128,44.179
				c-4.21,23.201,0.02,49.346,9.258,70.895c11.003,25.664,28.474,47.606,47.553,67.734c7.308,7.71,14.899,15.149,22.509,22.558
				C273.779,492.528,280.857,485.463,276.23,480.958L276.23,480.958z"/>
		</g>
	</g>
	<g display="inline">
		<g>
			<path fill="#000BD3" d="M211.411,256.862c-0.411-7.743-1.4-14.872-5.132-21.786c-3.064-5.675-11.698-0.627-8.635,5.047
				c2.87,5.315,3.452,10.803,3.767,16.739C201.752,263.276,211.753,263.309,211.411,256.862L211.411,256.862z"/>
		</g>
	</g>
	<g display="inline">
		<g>
			<path fill="#000BD3" d="M286.292,241.47c-0.44-8.387-0.879-16.773-1.319-25.16c-0.336-6.415-10.338-6.447-10,0
				c0.44,8.387,0.879,16.773,1.319,25.16C276.629,247.884,286.63,247.917,286.292,241.47L286.292,241.47z"/>
		</g>
	</g>
	<g display="inline">
		<g>
			<path fill="#000BD3" d="M366.324,252.378c1.352-1.985,3.996-2.809,6.14-3.627c3.342-1.274,6.524-2.899,9.834-4.244
				c2.523-1.025,4.279-3.289,3.492-6.151c-0.659-2.396-3.621-4.52-6.151-3.492c-3.915,1.591-7.719,3.41-11.657,4.947
				c-4.204,1.641-7.713,3.731-10.294,7.519C354.047,252.676,362.717,257.672,366.324,252.378L366.324,252.378z"/>
		</g>
	</g>
	<g display="inline">
		<g>
			<path fill="#000BD3" d="M390.828,301.509c6.862-0.36,13.724-0.719,20.586-1.079c6.415-0.336,6.447-10.338,0-10
				c-6.862,0.36-13.724,0.719-20.586,1.079C384.413,291.845,384.38,301.847,390.828,301.509L390.828,301.509z"/>
		</g>
	</g>
	<g display="inline">
		<g>
			<path fill="#000BD3" d="M400.141,351.231c6.754,1.958,13.108,5.028,19.861,6.987c6.208,1.8,8.84-7.851,2.658-9.643
				c-6.754-1.958-13.108-5.028-19.862-6.987C396.592,339.788,393.96,349.439,400.141,351.231L400.141,351.231z"/>
		</g>
	</g>
	<g display="inline">
		<g>
			<path fill="#000BD3" d="M392.786,426.406c7.108-0.07,13.645,3.567,20.825,3.496c6.445-0.064,6.451-10.064,0-10
				c-7.108,0.07-13.645-3.567-20.825-3.496C386.341,416.47,386.335,426.47,392.786,426.406L392.786,426.406z"/>
		</g>
	</g>
	<g display="inline">
		<g>
			<path fill="#000BD3" d="M372.388,467.203c1.509,3.329,4.078,6.038,6.712,8.518c1.255,1.182,1.933,2.852,2.946,4.259
				c1.212,1.684,2.617,3.219,3.881,4.862c1.658,2.156,4.265,3.303,6.841,1.794c2.128-1.247,3.46-4.674,1.794-6.841
				c-1.288-1.675-2.611-3.317-3.946-4.955c-1.187-1.457-1.661-3.667-3.034-4.906c-2.564-2.315-5.111-4.582-6.56-7.778
				C378.364,456.29,369.748,461.378,372.388,467.203L372.388,467.203z"/>
		</g>
	</g>
	<g display="inline">
		<g>
			<path fill="#000BD3" d="M341.602,502.954c0.14,2.669,0.28,5.337,0.42,8.006c0.178,3.391,1.694,6.364,3.33,9.266
				c3.166,5.616,11.805,0.578,8.635-5.047c-1.1-1.951-1.927-3.514-2.045-5.756c-0.113-2.156-0.226-4.312-0.339-6.468
				C351.265,496.54,341.264,496.507,341.602,502.954L341.602,502.954z"/>
		</g>
	</g>
	<g display="inline">
		<g>
			<path fill="#000BD3" d="M290.857,519.375c0.3,5.718,0.599,11.436,0.899,17.155c0.336,6.415,10.338,6.447,10,0
				c-0.3-5.718-0.599-11.436-0.899-17.155C300.521,512.96,290.519,512.928,290.857,519.375L290.857,519.375z"/>
		</g>
	</g>
	<g display="inline">
		<g>
			<path fill="#000BD3" d="M239.656,511.543c-3.086,4.387-8.383,8.554-13.567,10.038c-6.189,1.771-3.555,11.421,2.658,9.643
				c7.794-2.23,14.931-8.075,19.543-14.633C252.01,511.302,243.335,506.313,239.656,511.543L239.656,511.543z"/>
		</g>
	</g>
	<g display="inline">
		<g>
			<path fill="#000BD3" d="M206.117,468.729c-4.481,1.339-8.164,3.846-12.259,5.992c-4.075,2.136-8.375,3.777-12.412,6.063
				c-5.61,3.177-0.572,11.817,5.047,8.635c3.253-1.842,6.531-3.779,10.061-5.039c4.327-1.544,7.793-4.685,12.221-6.008
				C214.939,476.53,212.312,466.878,206.117,468.729L206.117,468.729z"/>
		</g>
	</g>
	<g display="inline">
		<g>
			<path fill="#000BD3" d="M176.518,425.446c-4.532,0.407-8.83,1.56-13.243,2.601c-5.238,1.236-11.017,0.964-16.371,1.244
				c-6.415,0.336-6.447,10.338,0,10c4.761-0.249,9.544-0.386,14.292-0.813c5.215-0.469,10.115-2.564,15.323-3.032
				C182.887,434.874,182.943,424.869,176.518,425.446L176.518,425.446z"/>
		</g>
	</g>
	<g display="inline">
		<g>
			<path fill="#000BD3" d="M161.96,388.365c-9.099,0.133-17.434-4.474-26.603-4.34c-6.443,0.094-6.452,10.095,0,10
				c9.099-0.133,17.434,4.474,26.603,4.34C168.403,398.271,168.412,388.271,161.96,388.365L161.96,388.365z"/>
		</g>
	</g>
	<g display="inline">
		<g>
			<path fill="#000BD3" d="M160.882,342.219c-8.806-3.851-15.653-9.742-23.712-14.812c-5.475-3.445-10.489,5.211-5.047,8.635
				c8.061,5.072,14.9,10.958,23.712,14.812C161.683,353.411,166.779,344.797,160.882,342.219L160.882,342.219z"/>
		</g>
	</g>
	<g display="inline">
		<g>
			<path fill="#000BD3" d="M172.933,287.688c-7.892-4.23-12.504-12.384-18.365-18.845c-4.341-4.786-11.392,2.308-7.071,7.071
				c6.512,7.178,11.6,15.698,20.389,20.408C173.568,299.368,178.618,290.735,172.933,287.688L172.933,287.688z"/>
		</g>
	</g>
</g>
</svg>
