<?xml version="1.0" encoding="utf-8"?>
<!-- Generator: Adobe Illustrator 17.0.0, SVG Export Plug-In . SVG Version: 6.00 Build 0)  -->
<!DOCTYPE svg PUBLIC "-//W3C//DTD SVG 1.1//EN" "http://www.w3.org/Graphics/SVG/1.1/DTD/svg11.dtd">
<svg version="1.1" xmlns="http://www.w3.org/2000/svg" xmlns:xlink="http://www.w3.org/1999/xlink" x="0px" y="0px"
	 width="595.28px" height="841.89px" viewBox="0 0 595.28 841.89" enable-background="new 0 0 595.28 841.89" xml:space="preserve">
<g id="Calque_1" display="none">
	<g display="inline">
		<g>
			<path fill="#000BD3" d="M272.774,480.607c-18.221-19.025-36.258-38.394-50.337-60.775c-13.016-20.69-21.025-43.318-22.493-67.772
				c-1.25-20.819,2.71-48.808,23.75-58.87c10.673-5.104,23.136-1.44,31.294,6.394c9.58,9.198,11.73,23.153,12.821,35.75
				c0.4,4.613,6.8,7.257,9.317,2.524c10.096-18.981,21.087-43.296,45.308-45.848c11.218-1.182,22.265,3.079,29.754,11.454
				c9.233,10.325,8.439,24.684,4.111,36.881c-4.455,12.556-13.372,23.672-21.772,33.804c-9.437,11.383-19.819,21.944-29.257,33.329
				c-18.251,22.015-29.952,47.831-37.283,75.336c-1.663,6.239,7.984,8.884,9.643,2.658c7.588-28.472,20.026-53.938,39.284-76.337
				c18.037-20.979,40.091-40.948,49.566-67.65c8.52-24.011-2.346-49.681-26.982-57.66c-10.53-3.411-22.541-2.322-32.578,2.134
				c-10.534,4.677-18.24,13.279-24.647,22.62c-5.258,7.666-9.426,16.04-13.782,24.231c3.106,0.841,6.212,1.682,9.317,2.524
				c-1.121-12.939-3.21-25.909-10.732-36.824c-6.998-10.155-17.814-16.394-30.025-17.519c-25.481-2.346-40.872,21.986-45.355,43.802
				c-10.847,52.776,18.839,101.694,52.297,139.555c7.035,7.96,14.361,15.659,21.708,23.33
				C270.17,492.343,277.232,485.263,272.774,480.607L272.774,480.607z"/>
		</g>
	</g>
</g>
<g id="Calque_1_-_copie" display="none">
	<g display="inline">
		<g>
			<path fill="#000BD3" d="M277.975,481.017c-19.171-18.026-38.284-36.423-53.501-58.015c-14.45-20.505-23.916-43.45-26.342-68.507
				c-2.003-20.683,1.191-51.278,24.012-59.571c11.082-4.027,22.508,0.008,30.508,8.12c8.768,8.891,11.09,22.188,12.745,34.045
				c0.59,4.23,7.404,4.913,9.139,1.194c9.277-19.888,18.675-43.723,42.723-48.349c10.422-2.005,21.751,1.549,29.43,8.715
				c10.064,9.394,11.085,23.367,7.689,35.946c-3.445,12.759-11.353,24.086-18.991,34.669c-8.651,11.986-18.482,23.084-27.453,34.828
				c-17.847,23.364-28.698,50.302-34.748,78.943c-1.329,6.29,8.31,8.966,9.643,2.658c6.222-29.457,17.643-55.96,36.209-79.751
				c16.904-21.662,38.048-42.997,45.402-70.24c6.581-24.378-6.238-49.275-31.35-55.109c-10.977-2.55-22.422-0.51-32.365,4.543
				c-10.119,5.143-17.391,14.863-23.05,24.394c-4.505,7.588-8.049,15.718-11.773,23.703c3.046,0.398,6.092,0.796,9.139,1.194
				c-1.722-12.336-4.495-24.867-12.314-34.899c-7.467-9.579-18.061-15.468-30.221-16.16c-25.436-1.447-40.037,22.898-43.636,44.914
				c-8.751,53.529,23.545,101.38,59.137,137.639c7.442,7.581,15.161,14.886,22.899,22.162
				C275.597,492.501,282.682,485.443,277.975,481.017L277.975,481.017z"/>
		</g>
	</g>
	<g display="inline">
		<g>
			<path fill="#000BD3" d="M182.613,450.394c-19.188,4.049-36.273,14.438-55.461,18.487c-6.308,1.331-3.632,10.97,2.658,9.643
				c19.188-4.049,36.273-14.438,55.461-18.487C191.579,458.706,188.903,449.066,182.613,450.394L182.613,450.394z"/>
		</g>
	</g>
	<g display="inline">
		<g>
			<path fill="#000BD3" d="M330.798,251.838c4.783-8.592,10.413-16.667,15.31-25.192c5.003-8.71,8.791-18.161,13.321-27.125
				c2.901-5.74-5.725-10.804-8.635-5.047c-4.266,8.44-8.153,17.064-12.419,25.504c-4.702,9.303-11.141,17.705-16.212,26.813
				C319.024,252.431,327.662,257.472,330.798,251.838L330.798,251.838z"/>
		</g>
	</g>
	<g display="inline">
		<g>
			<path fill="#000BD3" d="M337.261,458.087c11.404,11.409,21.046,24.238,32.3,35.761c4.512,4.62,11.578-2.457,7.071-7.071
				c-11.249-11.517-20.901-24.357-32.3-35.761C339.769,446.451,332.698,453.523,337.261,458.087L337.261,458.087z"/>
		</g>
	</g>
	<g display="inline">
		<g>
			<path fill="#000BD3" d="M183.984,267.596c-12.515-10.794-19.485-26.312-32.3-36.915c-4.928-4.077-12.044,2.956-7.071,7.071
				c12.802,10.592,19.774,26.111,32.3,36.915C181.769,278.856,188.875,271.815,183.984,267.596L183.984,267.596z"/>
		</g>
	</g>
</g>
<g id="Calque_1_-_copie_2" display="none">
	<g display="inline">
		<g>
			<path fill="#000BD3" d="M210.201,387.377c-9.89-8.354-21.26-17.365-27.058-29.218c-3.305-6.757-4.417-14.372-4.249-21.817
				c0.15-6.616,2.171-13.063,3.154-19.583c0.859-5.695,1.533-11.411,2.578-17.077c0.503-2.726,1.164-5.414,1.952-8.071
				c0.358-1.208,0.786-2.412,1.29-3.568c0.258-0.591,2.142-3.411,1.268-2.842c1.438-0.936,3.638-1.205,5.286-1.571
				c0.866-0.193,1.685-0.294,2.567-0.348c-2.911,0.178-2.608-4.321-2.537-1.377c0.049,2.038-0.267,4.105-0.474,6.128
				c-0.087,0.85-0.15,1.697-0.187,2.55c-0.084,1.934,0.494-2.163,0.008,1.551c-1.659,12.674-2.067,25.735-1.58,38.493
				c0.34,8.908,1.046,31.82,15.285,29.352c4.628-0.802,8.001-5.534,9.726-9.555c2.837-6.615,4.482-13.77,5.531-20.877
				c2.263-15.334,3.099-31.125,7.12-46.129c0.364-1.358,2.617-8.78,4.653-7.829c4.445,2.075,4.439,11.134,4.48,15.08
				c0.138,13.377-3.429,26.623-6.411,39.545c-2.205,9.555-4.539,22.345,4.421,29.256c3.86,2.977,9.585,1.115,13.432-0.704
				c4.971-2.351,8.703-7.336,11.375-11.963c6.738-11.67,6.547-25.385,5.865-38.388c-0.635-12.121-1.193-28.021,7.121-37.915
				c0.888-1.057,2.669-3.332,4.341-3.067c1.134,0.18,1.372,8.064,1.458,9.225c0.48,6.488-0.09,13.04-0.825,19.485
				c-1.371,12.034-1.62,24.002-2.535,36.062c-0.993,13.095-6.514,25.133-13.077,36.327c-5.703,9.727-13.941,16.518-24.082,21.209
				c-5.848,2.705-0.764,11.323,5.047,8.635c23.557-10.897,38.848-37.251,41.77-62.579c0.755-6.546,0.835-13.147,1.06-19.725
				c0.248-7.249,1.182-14.374,2.002-21.57c0.819-7.192,1.035-14.4,0.309-21.608c-0.57-5.652-1.426-12.571-7.575-14.782
				c-11.129-4.002-19.248,9.563-22.178,18.186c-4.451,13.101-2.832,27.655-2.435,41.175c0.328,11.163-1.926,26.503-12.691,32.658
				c-4.479,2.561-4.628-2.361-4.88-5.739c-0.539-7.23,2.633-15.342,4.3-22.315c2.778-11.622,5.037-24.792,3.912-36.787
				c-0.83-8.854-6.283-22.735-17.712-19.305c-10.214,3.066-12.114,19.104-13.499,27.586c-2.441,14.948-2.612,30.526-6.814,45.142
				c-0.856,2.978-1.953,6.678-3.456,9.376c-0.301,0.541-1.239,1.978-1.981,2.171c1.074-0.28-0.622-0.285,0.613-0.021
				c0.832,0.178,0.027-0.045,0.041-0.026c-0.775-1.064-1.033-1.838-1.404-2.94c-2.183-6.482-2.28-13.721-2.425-20.484
				c-0.165-7.677,0.143-15.368,0.647-23.028c0.177-2.683,0.394-5.363,0.65-8.04c0.085-0.89,0.18-1.779,0.282-2.668
				c0.041-0.359,0.21-1.566-0.031,0.169c0.132-0.952,0.152-1.711,0.137-2.64c-0.064-4.066,2.316-10.514-0.475-14.136
				c-3.652-4.741-9.695-3.083-14.749-1.653c-12.577,3.557-13.654,21.46-15.174,32.271c-2.29,16.294-6.804,31.636-2.078,47.996
				c4.817,16.676,19.045,28.602,31.815,39.389C208.023,398.581,215.134,391.544,210.201,387.377L210.201,387.377z"/>
		</g>
	</g>
	<g display="inline">
		<g>
			<path fill="#000BD3" d="M233.127,395.095c0.979,32.741,2.548,65.462,3.228,98.211c0.339,16.329,0.409,32.664,0.088,48.994
				c-0.317,16.081-1.676,32.06-2.41,48.111c-0.603,13.194,0.357,26.392-0.766,39.575c-0.373,4.375-0.445,12.982-4.395,15.742
				c-6.014,4.203-8.334-7.791-9.261-11.593c-3.293-13.512-3.658-28.303-4.282-42.128c-0.723-16.028-0.304-32.126,0.531-48.142
				c1.412-27.098,4.737-54.056,6.176-81.153c1.36-25.606-2.315-51.285-8.008-76.188c-1.437-6.285-11.078-3.62-9.643,2.658
				c3.453,15.104,6.108,30.32,7.251,45.783c1.168,15.799,0.322,31.539-0.884,47.305c-2.456,32.107-5.948,64.064-5.762,96.314
				c0.086,15.004,1.241,29.96,2.861,44.868c1.1,10.125,2.602,27.485,13.44,32.195c4.581,1.991,9.56,0.859,13.545-1.926
				c5.059-3.535,6.156-8.85,7.234-14.613c2.45-13.106,1.837-26.624,1.82-39.885c-0.02-15.719,1.777-31.442,2.298-47.159
				c0.583-17.616,0.558-35.249,0.277-52.87c-0.553-34.716-2.3-69.399-3.337-104.101
				C242.935,388.661,232.934,388.643,233.127,395.095L233.127,395.095z"/>
		</g>
	</g>
</g>
<g id="Calque_4" display="none">
	<g display="inline">
		<g>
			<path fill="#000BD3" d="M219.083,393.02c16.836-7.706,33.564-14.738,51.52-19.321c8.625-2.202,16.975-5.274,25.132-8.83
				c7.525-3.281,14.054-8.125,21.451-11.545c5.848-2.704,0.765-11.322-5.047-8.635c-6.835,3.16-12.874,7.683-19.769,10.811
				c-8.433,3.826-17.228,6.718-26.188,9.005c-18.137,4.63-35.151,12.101-52.147,19.88
				C208.178,387.066,213.264,395.683,219.083,393.02L219.083,393.02z"/>
		</g>
	</g>
	<g display="inline">
		<g>
			<path fill="#000BD3" d="M217.547,394.531c12.289-1.061,24.592-1.857,36.925-2.129c12.003-0.264,23.9,0.621,35.882,0.957
				c11.225,0.315,22.275-0.433,33.31-2.55c11.48-2.202,22.317-6.808,32.768-11.941c9.649-4.739,19.822-9.548,28.485-15.962
				c3.209-2.376,6.572-4.853,7.762-8.831c1.338-4.471-2.594-7.323-6.124-8.742c-3.989-1.604-9.554-0.655-13.667-0.184
				c-5.727,0.655-11.392,0.87-17.157,1.003c-12.486,0.289-24.955,0.013-37.357-1.555c-6.386-0.808-6.308,9.202,0,10
				c19.81,2.505,39.449,1.568,59.259,0.099c2.097-0.155,4.196-0.12,6.263,0.28c0.118-3.437-0.454-4.316-1.716-2.636
				c-0.68,0.583-1.366,1.157-2.059,1.725c-3.525,2.925-7.658,5.204-11.68,7.357c-8.94,4.784-18.033,9.615-27.403,13.53
				c-18.33,7.659-38.077,9.567-57.788,8.101c-21.872-1.627-43.89-0.403-65.703,1.48
				C211.172,385.082,211.119,395.086,217.547,394.531L217.547,394.531z"/>
		</g>
	</g>
	<g display="inline">
		<g>
			<path fill="#000BD3" d="M210.14,393.402c1.161,13.27,2.322,26.54,3.483,39.81c0.515,5.882,0.859,11.817,1.764,17.656
				c0.884,5.707,2.572,11.058,3.085,16.844c0.564,6.371,10.569,6.426,10,0c-0.445-5.022-1.229-9.715-2.525-14.578
				c-1.704-6.395-1.749-13.358-2.323-19.922c-1.161-13.27-2.322-26.54-3.483-39.81C219.583,387.03,209.578,386.976,210.14,393.402
				L210.14,393.402z"/>
		</g>
	</g>
	<g display="inline">
		<g>
			<path fill="#000BD3" d="M315.962,389.635c1.254,14.336,2.508,28.671,3.763,43.007c0.593,6.773,1.409,13.539,1.3,20.346
				c-0.104,6.442-0.159,12.699,2.188,18.802c2.29,5.954,11.961,3.37,9.643-2.658c-2.253-5.859-1.901-11.747-1.802-17.911
				c0.11-6.819-0.903-13.714-1.496-20.5c-1.198-13.695-2.396-27.39-3.595-41.086C325.404,383.262,315.4,383.208,315.962,389.635
				L315.962,389.635z"/>
		</g>
	</g>
	<g display="inline">
		<g>
			<path fill="#000BD3" d="M382.396,349.616c2.48,14.064,4.96,28.127,7.439,42.191c2.379,13.495,3.843,27.046,6.227,40.562
				c1.118,6.343,10.754,3.646,9.643-2.658c-2.278-12.917-3.634-25.86-5.909-38.762c-2.586-14.664-5.171-29.327-7.757-43.991
				C390.921,340.615,381.285,343.312,382.396,349.616L382.396,349.616z"/>
		</g>
	</g>
	<g display="inline">
		<g>
			<path fill="#000BD3" d="M219.981,391.586c0.276-9.032-2.109-17.847-3.907-26.627c-1.985-9.696-4.417-19.297-6.681-28.93
				c-4.579-19.49-7.748-38.97-9.492-58.904c-0.558-6.373-10.562-6.427-10,0c1.656,18.934,4.428,37.495,8.582,56.054
				c2.172,9.702,4.617,19.34,6.788,29.043c2.134,9.54,5.011,19.527,4.71,29.364C209.784,398.038,219.784,398.019,219.981,391.586
				L219.981,391.586z"/>
		</g>
	</g>
	<g display="inline">
		<g>
			<path fill="#000BD3" d="M197.425,281.443c15.622-7.631,30.997-15.187,47.817-19.798c8.077-2.214,15.926-4.742,23.603-8.103
				c7.263-3.179,14.576-7.037,22.66-7.321c6.43-0.226,6.452-10.227,0-10c-7.636,0.269-14.515,2.889-21.448,5.892
				c-8.451,3.66-16.736,6.919-25.631,9.384c-18.308,5.073-35.018,12.992-52.049,21.312
				C186.583,275.638,191.655,284.261,197.425,281.443L197.425,281.443z"/>
		</g>
	</g>
	<g display="inline">
		<g>
			<path fill="#000BD3" d="M287.334,240.233c0.871,9.957,1.742,19.914,2.613,29.871c0.376,4.303,1.45,8.01,3.044,12.015
				c1.754,4.408,1.885,8.926,2.626,13.56c1.419,8.873,3.4,17.757,4.396,26.719c1.028,9.248,3.239,16.782,8.118,24.751
				c3.36,5.489,12.012,0.469,8.635-5.047c-9.017-14.729-7.525-32.693-11.506-49.08c-0.984-4.049-0.607-8.142-2.066-12.132
				c-1.587-4.338-3.005-8.034-3.412-12.682c-0.816-9.325-1.632-18.649-2.447-27.974C296.777,233.86,286.772,233.806,287.334,240.233
				L287.334,240.233z"/>
		</g>
	</g>
	<g display="inline">
		<g>
			<path fill="#000BD3" d="M202.816,322.15c7.585-3.644,15.606-7.143,23.662-9.562c7.78-2.336,14.936-6.415,22.076-10.177
				c3.65-1.923,7.609-2.765,11.403-4.292c3.894-1.568,7.5-3.751,11.253-5.614c3.431-1.703,7.09-3.043,10.571-4.666
				c3.751-1.749,7.657-3.735,11.507-5.233c5.941-2.312,3.36-11.985-2.658-9.643c-7.39,2.876-14.427,6.704-21.78,9.719
				c-3.408,1.398-6.601,3.233-9.863,4.932c-3.933,2.049-8.313,2.868-12.352,4.691c-7.648,3.451-14.677,8.25-22.815,10.64
				c-8.905,2.615-17.692,6.554-26.051,10.57C191.958,316.307,197.033,324.929,202.816,322.15L202.816,322.15z"/>
		</g>
	</g>
</g>
<g id="Calque_5" display="none">
	<g display="inline">
		<g>
			<path fill="#000BD3" d="M300.673,191.462c-6.613,3.315-13.306,6.936-16.788,13.79c-4.173,8.216-2.277,16.04,1.994,23.741
				c7.765,14,26.782,21.088,41.317,14.195c13.721-6.507,18.073-22.782,13.423-36.382c-2.536-7.417-6.817-13.549-13.356-17.947
				c-8.302-5.583-17.477-3.131-25.482,1.496c-5.58,3.225-0.546,11.868,5.047,8.635c5.725-3.309,11.067-4.96,16.732-0.577
				c4.04,3.126,6.247,7.631,7.859,12.345c3.058,8.942,0.055,18.194-8.033,23.128c-9.866,6.019-21.279-0.766-27.842-8.324
				c-4.07-4.688-5.186-11.005-2.413-16.464c2.293-4.514,8.332-6.866,12.59-9C311.486,197.207,306.42,188.581,300.673,191.462
				L300.673,191.462z"/>
		</g>
	</g>
	<g display="inline">
		<g>
			<path fill="#000BD3" d="M313.691,245.583c0,16.723,0,33.445,0,50.168c0,7.857,0,15.714,0,23.571
				c0,7.185-0.017,13.952,2.896,20.645c2.568,5.9,11.181,0.803,8.635-5.047c-2.714-6.236-1.531-14.4-1.531-21.028
				c0-7.288,0-14.576,0-21.865c0-15.481,0-30.963,0-46.444C323.691,239.135,313.691,239.135,313.691,245.583L313.691,245.583z"/>
		</g>
	</g>
	<g display="inline">
		<g>
			<path fill="#000BD3" d="M316.587,334.92c-3.906,9.109-7.743,18.287-13.38,26.469c-3.662,5.315-6.267,11.27-8.895,17.137
				c-7.785,17.381-13.389,36.212-16.733,54.983c-1.123,6.304,8.513,9,9.643,2.658c3.275-18.382,8.695-36.897,16.322-53.927
				c2.44-5.448,4.971-10.832,8.298-15.804c5.539-8.277,9.46-17.326,13.38-26.469C327.734,334.108,319.122,329.009,316.587,334.92
				L316.587,334.92z"/>
		</g>
	</g>
	<g display="inline">
		<g>
			<path fill="#000BD3" d="M315.904,344.084c0.512,8.124,6.605,13.176,12.272,18.255c6.564,5.884,9.359,14.528,14.701,21.526
				c2.715,3.557,5.609,6.967,8.491,10.388c3.495,4.149,0.484,11.656,1.025,16.588c0.88,8.035-5.316,16.267-2.001,24.219
				c2.444,5.862,12.124,3.293,9.643-2.658c-1.209-2.9,0.011-7.27,0.723-10.346c0.862-3.726,2.463-7.68,1.66-11.563
				c-0.942-4.554,0.83-9.279,0.306-13.905c-0.597-5.282-3.779-8.8-7.051-12.691c-3.147-3.742-6.157-7.563-8.843-11.652
				c-2.492-3.793-3.759-8.237-6.582-11.788c-2.305-2.899-5.113-5.288-7.865-7.748c-2.431-2.174-6.255-5.081-6.478-8.624
				C325.501,337.681,315.498,337.641,315.904,344.084L315.904,344.084z"/>
		</g>
	</g>
	<g display="inline">
		<g>
			<path fill="#000BD3" d="M252.831,268.905c5.068,0.186,9.745,3.438,13.86,6.096c5.537,3.577,10.761,7.61,16.381,11.064
				c5.05,3.105,10.453,5.44,16.447,5.48c8.984,0.06,17.934,1.034,26.92,1.094c8.056,0.054,15.973,1.285,24.023,0.323
				c4.019-0.48-3.691-7.425-2.467-3.046c0.349,1.249,1.13,2.593,2.353,3.184c2.692,1.302,4.653,0.441,7.316-0.419
				c4.12-1.331,10.935,1.285,14.986,2.127c4.882,1.014,9.89,2.244,14.883,1.526c6.363-0.914,3.646-10.549-2.658-9.643
				c-4.374,0.629-10.976-1.849-15.564-2.749c-2.968-0.582-5.969-1.049-8.985-1.293c-1.116-0.09-2.222-0.052-3.332,0.076
				c-0.67,0.06-1.333,0.164-1.988,0.312c-2.639,0.536-2.149,0.2,0.389,1.427c0.766,0.996,1.532,1.992,2.298,2.988
				c0.148,1.334,0.119,1.188-0.086-0.439c-0.234-0.851-0.791-1.818-1.415-2.443c-1.263-1.263-2.87-1.545-4.576-1.708
				c-2.599-0.249-5.584,0.533-8.233,0.57c-3.285,0.046-6.582-0.286-9.856-0.517c-5.97-0.422-11.966-0.314-17.944-0.629
				c-5.951-0.314-12.647,0.2-18.475-0.861c-8.087-1.472-15.527-8.317-22.086-12.853c-6.611-4.571-13.906-9.365-22.19-9.67
				C246.379,258.668,246.402,268.669,252.831,268.905L252.831,268.905z"/>
		</g>
	</g>
</g>
<g id="Calque_6">
	<g>
		<g>
			<path fill="#000BD3" d="M357.281,206.238c-30.206,1.083-60.404,2.313-90.634,2.335c-15.653,0.012-31.304,0.044-46.934,0.997
				c-13.678,0.834-27.935,2.007-41.329,5.025c-11.995,2.703-22.526,9.433-29.602,19.541c-6.872,9.816-5.487,23.708,1.288,33.15
				c6.986,9.736,19.429,13.85,30.492,16.854c14.45,3.924,29.72,4.448,44.604,4.532c26.32,0.148,52.525-0.708,78.729-3.256
				c12.883-1.253,25.695-3.024,38.544-4.56c12.834-1.534,25.902-2.803,38.451-6.01c9.849-2.517,17.704-8.467,23.771-16.465
				c5.791-7.633,10.787-17.945,6.931-27.512c-7.759-19.249-33.923-21.93-51.39-24.452c-6.305-0.91-9.021,8.724-2.658,9.643
				c12.706,1.835,25.132,3.08,36.367,9.737c3.961,2.347,8.749,6.356,9.088,11.334c0.437,6.414-4.145,12.852-8.075,17.471
				c-9.783,11.498-25.193,12.746-39.283,14.632c-15.909,2.13-31.872,4.118-47.835,5.787c-31.617,3.306-63.637,4.591-95.415,3.393
				c-14.549-0.548-29.418-2.64-42.853-8.536c-10.832-4.754-19.129-16.188-13.59-28.146c2.85-6.151,9.304-11.155,15.196-14.162
				c6.525-3.331,14.31-4.443,21.506-5.225c18.491-2.008,36.744-3.5,55.365-3.709c36.458-0.41,72.826-1.092,109.267-2.399
				C363.71,216.008,363.732,206.007,357.281,206.238L357.281,206.238z"/>
		</g>
	</g>
	<g>
		<g>
			<path fill="#000BD3" d="M144.206,257.817c7.22,64.961,13.925,130.024,22.181,194.863c3.899,30.625,7.54,61.906,15.603,91.768
				c3.764,13.94,9.418,26.816,16.111,39.561c5.24,9.977,10.579,19.984,17.607,28.843c6.622,8.348,14.775,15.477,25.227,18.376
				c5.374,1.491,11.322,1.399,16.851,1.79c6.508,0.46,13.022,0.827,19.54,1.088c27.097,1.085,54.074-0.779,80.752-5.665
				c11.165-2.045,22.792-3.44,31.406-11.449c6.615-6.15,10.181-15.182,12.612-23.669c2.841-9.917,4.028-20.295,5.259-30.508
				c1.373-11.397,3.17-22.735,4.456-34.141c5.426-48.153,2.999-96.93,0.619-145.195c-1.187-24.075-2.321-48.169-2.034-72.281
				c0.289-24.301,2.165-48.551,4.028-72.771c0.495-6.435-9.509-6.387-10,0c-2.463,32.027-4.539,63.998-3.915,96.139
				c0.632,32.583,3.08,65.1,3.969,97.675c0.895,32.828,0.793,65.73-2.888,98.401c-1.257,11.157-3.04,22.263-4.384,33.415
				c-1.216,10.094-2.679,20.22-5.755,29.938c-2.535,8.009-6.758,15.672-14.418,19.681c-5.268,2.757-12.179,3.277-17.933,4.42
				c-7.773,1.543-15.607,2.806-23.469,3.8c-25.862,3.267-51.888,2.914-77.843,1.122c-5.548-0.383-11.205-0.418-16.535-2.135
				c-5.135-1.654-9.49-5.326-13.235-9.073c-8.007-8.01-13.562-18.351-18.852-28.251c-6.656-12.455-12.535-24.795-16.57-38.378
				c-4.151-13.973-6.662-28.393-8.973-42.764c-6.492-40.372-11.107-80.977-15.638-121.607c-4.573-41-9.219-81.992-13.776-122.993
				C153.501,251.482,143.494,251.413,144.206,257.817L144.206,257.817z"/>
		</g>
	</g>
	<g>
		<g>
			<path fill="#000BD3" d="M409.545,387.954c2.515-15.454-6.663-25.069-19.78-31.851c-10.015-5.178-21.296-9.482-32.373-11.655
				c-10.18-1.997-20.688-2.439-31.031-2.724c-21.401-0.591-43.051-0.51-64.454-0.055c-27.425,0.583-57.45,6.085-81.332,20.277
				c-7.658,4.551-15.879,12.065-16.932,21.439c-0.708,6.303,3.264,11.199,8.09,14.654c11.726,8.396,29.081,9.807,42.947,11.355
				c21.127,2.358,42.425,2.35,63.65,1.636c31.711-1.066,63.846-3.374,95.151-8.659c10.507-1.774,20.914-4.111,31.149-7.075
				c6.182-1.79,3.55-11.44-2.658-9.643c-30.684,8.883-62.661,11.531-94.394,13.803c-27.228,1.95-54.916,3.191-82.162,0.949
				c-13.965-1.149-28.318-2.57-41.568-7.394c-2.707-0.986-5.28-2.327-7.622-4.004c-1.598-1.144-2.603-3.053-2.669-3.873
				c-0.654-8.111,12.137-14.888,18.339-17.943c23.19-11.424,50.079-15.488,75.684-15.596c18.187-0.077,36.432-0.245,54.62,0.038
				c9.414,0.147,18.917,0.448,28.253,1.747c9.715,1.352,19.132,4.702,28.135,8.504c10.483,4.427,23.349,10.913,21.316,23.409
				C398.876,391.602,408.512,394.307,409.545,387.954L409.545,387.954z"/>
		</g>
	</g>
</g>
</svg>
