<?xml version="1.0" encoding="utf-8"?>
<!-- Generator: Adobe Illustrator 17.0.0, SVG Export Plug-In . SVG Version: 6.00 Build 0)  -->
<!DOCTYPE svg PUBLIC "-//W3C//DTD SVG 1.1//EN" "http://www.w3.org/Graphics/SVG/1.1/DTD/svg11.dtd">
<svg version="1.1" id="Calque_1" xmlns="http://www.w3.org/2000/svg" xmlns:xlink="http://www.w3.org/1999/xlink" x="0px" y="0px"
	 width="595.28px" height="841.89px" viewBox="0 0 595.28 841.89" enable-background="new 0 0 595.28 841.89" xml:space="preserve">
<g>
	<g>
		<path fill="#000BD3" d="M352.693,692.694c-0.311-6.466-2.803-12.087-5.716-17.773c-3.767-7.351-7.62-14.653-11.291-22.053
			c-7.263-14.643-14.023-29.541-20.267-44.647c-11.949-28.907-21.416-58.946-29.129-89.24
			c-7.785-30.575-13.416-61.705-16.922-93.057c-3.576-31.983-3.999-63.988-4.309-96.13c-0.156-16.157-2.07-32.897,0.473-48.932
			c1-6.306-8.635-9.014-9.643-2.658c-2.213,13.954-1.19,27.966-0.952,42.023c0.272,16.094,0.219,32.191,0.58,48.283
			c0.709,31.545,3.832,62.994,8.869,94.136c10.025,61.975,28.615,122.469,55.045,179.401c4.133,8.904,8.477,17.709,12.95,26.447
			c3.773,7.37,9.901,15.699,10.31,24.2C343.003,699.113,353.004,699.143,352.693,692.694L352.693,692.694z"/>
	</g>
</g>
<g>
	<g>
		<path fill="#000BD3" d="M253.909,270.262c-23.188,13.89-46.887,27.137-67.665,44.585c-9.944,8.35-18.74,17.867-26.151,28.529
			c-6.801,9.782-12.879,22.014-6.471,33.5c5.553,9.953,16.354,10.67,26.491,8.074c10.88-2.787,20.019-10.551,27.229-18.838
			c7.808-8.974,13.869-19.342,19.859-29.566c7.475-12.761,15.466-25.182,22.586-38.157c2.464-4.49,4.824-9.036,7.126-13.611
			c2.89-5.744-5.736-10.809-8.635-5.047c-11.461,22.782-24.812,44.943-38.588,66.407c-5.594,8.716-12.065,17.289-20.532,23.411
			c-5.951,4.303-19.169,10.863-25.714,4.383c-8.277-8.194,2.944-22.267,7.767-29.034c7.075-9.928,16.411-18.404,25.825-26.052
			c19.074-15.497,40.907-27.36,61.921-39.948C264.481,275.587,259.456,266.939,253.909,270.262L253.909,270.262z"/>
	</g>
</g>
<g>
	<g>
		<path fill="#000BD3" d="M253.175,286.057c15.392,24.727,28.798,50.509,47.9,72.664c7.5,8.699,17.075,19.18,28.947,21.268
			c8.769,1.542,16.47-2.529,20.699-10.229c9.502-17.301,1.413-38.539-12.224-50.815c-8.748-7.875-19.518-12.17-30.211-16.64
			c-14.021-5.861-27.723-12.425-40.596-20.531c-5.474-3.447-10.488,5.209-5.047,8.635c10.675,6.722,21.903,12.358,33.433,17.453
			c9.643,4.262,19.646,7.696,28.662,13.243c14.546,8.948,24.05,25.336,17.981,42.248c-7.486,20.862-32.485-9.19-38.566-16.388
			c-16.848-19.942-28.6-43.876-42.344-65.956C258.411,275.549,249.757,280.565,253.175,286.057L253.175,286.057z"/>
	</g>
</g>
<g>
	<g>
		<path fill="#000BD3" d="M259.051,270.262c-19.707-9.216-39.204-18.981-57.561-30.699c-8.113-5.179-16.36-9.806-23.429-16.441
			c-4.919-4.617-15.903-16.593-8.817-23.035c6.278-5.707,17.307-2.875,24.039,0.392c8.144,3.953,14.627,10.683,20.416,17.483
			c13.625,16.002,23.686,34.727,36.734,51.198c4.003,5.053,11.03-2.074,7.071-7.071c-14.904-18.814-25.95-40.658-42.835-57.9
			c-13.39-13.673-37.102-25.166-53.658-10.117c-8.122,7.383-2.85,19.459,2.101,26.854c6.022,8.993,14.842,15.625,23.817,21.434
			c21.434,13.875,43.963,25.727,67.075,36.535C259.808,281.611,264.889,272.992,259.051,270.262L259.051,270.262z"/>
	</g>
</g>
<g>
	<g>
		<path fill="#000BD3" d="M262.807,274.579c-0.88-18.783-2.78-37.861,0.119-56.56c2.182-14.071,7.821-32.198,22.924-37.105
			c6.789-2.206,10.097,3.49,10.805,9.63c1.039,9.003-3.597,18.086-7.76,25.729c-4.565,8.38-10.038,16.131-15.204,24.136
			c-5.833,9.04-11.2,18.374-16.364,27.809c-3.098,5.659,5.538,10.704,8.635,5.047c6.02-10.997,12.369-21.795,19.271-32.264
			c5.969-9.055,11.959-18.044,16.444-27.963c4.151-9.178,6.697-19.383,3.665-29.281c-2.405-7.849-8.491-13.524-16.924-13.368
			c-18.41,0.34-28.918,20.598-33.155,35.708c-6.207,22.138-3.516,45.875-2.456,68.483
			C253.108,280.999,263.109,281.028,262.807,274.579L262.807,274.579z"/>
	</g>
</g>
<g>
	<g>
		<path fill="#000BD3" d="M269.121,277.93c20.649-12.042,41.479-24.105,64.175-31.901c11.287-3.877,22.556-5.665,34.318-7.235
			c6.323-0.844,28.126-1.95,25.23,9.085c-2.397,9.134-15.533,14.548-23.417,17.561c-9.416,3.598-19.492,5.577-29.466,6.829
			c-23.538,2.954-47.359,1.018-70.855,4.198c-6.365,0.862-3.644,10.496,2.658,9.643c14.548-1.969,29.28-1.434,43.914-1.969
			c12.043-0.441,24.131-1.511,36.001-3.613c11.243-1.991,22.278-5.414,32.35-10.842c9.258-4.989,20.822-14.123,19.024-26.071
			c-1.804-11.987-15.661-14.841-25.823-15.296c-12.595-0.564-26.072,2.16-38.146,5.458c-26.786,7.317-51.204,21.637-75.01,35.52
			C258.508,272.542,263.539,281.186,269.121,277.93L269.121,277.93z"/>
	</g>
</g>
<g>
	<g>
		<path fill="#000BD3" d="M280.379,498.672c11.845-18.906,24.706-37.731,42.783-51.251c8.762-6.553,18.834-11.807,29.051-15.659
			c8.809-3.321,22.507-7.927,31.517-3.211c4.252,2.225-0.828,8.667-2.637,10.574c-3.482,3.671-7.261,7.127-11.102,10.414
			c-8.688,7.438-18.571,13.475-28.678,18.769c-21.192,11.1-44.157,19.513-67.859,23.02c-6.361,0.941-3.647,10.576,2.658,9.643
			c27.168-4.02,53.848-14.484,77.65-28.077c11.532-6.586,22.111-14.641,31.582-23.937c7.332-7.197,14.177-17.425,6.117-26.979
			c-7.117-8.436-23.324-4.989-32.289-2.844c-12.691,3.036-24.777,9.123-35.762,16.038c-22.396,14.097-37.864,36.425-51.666,58.454
			C268.31,499.107,276.965,504.122,280.379,498.672L280.379,498.672z"/>
	</g>
</g>
</svg>
