<?xml version="1.0" encoding="utf-8"?>
<!-- Generator: Adobe Illustrator 17.0.0, SVG Export Plug-In . SVG Version: 6.00 Build 0)  -->
<!DOCTYPE svg PUBLIC "-//W3C//DTD SVG 1.1//EN" "http://www.w3.org/Graphics/SVG/1.1/DTD/svg11.dtd">
<svg version="1.1" id="Calque_1" xmlns="http://www.w3.org/2000/svg" xmlns:xlink="http://www.w3.org/1999/xlink" x="0px" y="0px"
	 width="595.28px" height="841.89px" viewBox="0 0 595.28 841.89" enable-background="new 0 0 595.28 841.89" xml:space="preserve">
<g>
	<g>
		<path fill="#000BD3" d="M245.139,330.792c-6.851-6.95-13.104-14.367-23.288-15.713c-9.44-1.248-18.371,8.775-21.308,16.582
			c-3.495,9.292-3.409,18.332,1.912,26.887c4.395,7.067,13.271,9.928,20.956,11.516c0.443-3.274,0.886-6.548,1.329-9.821
			c-14.694,1.707-26.891,8.509-37.525,18.61c-7.566,7.187-16.782,18.566-15.018,29.73c2.001,12.661,17.862,15.426,28.331,16.292
			c14.326,1.184,24.056-8.768,33.369-18.155c4.545-4.581-2.507-11.636-7.071-7.071c-10.733,10.736-21.599,21.591-29.463,34.69
			c-6.102,10.164-13.653,23.779-3.922,34.45c8.313,9.116,22.899,10.567,34.382,8.927c12.903-1.843,21.505-11.451,26.529-22.825
			c-3.046-0.398-6.092-0.796-9.139-1.194c8.499,24.645,30.061,42.862,56.156,46.245c13.094,1.697,24.338-5.065,31.077-15.983
			c7.23-11.712,5.87-23.977-0.807-35.52c-2.878,1.682-5.756,3.365-8.635,5.047c4.853,7.606,12.775,13.51,21.119,16.859
			c8.082,3.243,17.936,7.099,26.474,3.203c7.797-3.558,12.168-11.316,15.846-18.657c4.286-8.552,1.694-18.362-2.81-26.126
			c-1.882,2.448-3.764,4.897-5.647,7.345c10.069,2.082,21.687,6.797,31.619,2.463c9.378-4.092,13.668-16.788,16.183-25.774
			c3.014-10.771,3.945-23.044-1.403-33.217c-4.911-9.339-17.674-11.63-26.993-12.794c-4.508-0.563-9.413-0.577-13.631-2.475
			c-4.55-2.047-0.28-8.178,1.409-11.104c5.321-9.218,11.993-18.219,7.143-29.181c-4.43-10.011-18.254-9.113-26.531-5.705
			c-9.658,3.977-14.835,13.623-20.293,21.913c3.106,0.841,6.212,1.682,9.317,2.524c1.787-15.503,4.331-30.567,2.08-46.171
			c-1.365-9.464-4.071-20.442-12.853-25.699c-10.703-6.406-25.493,1.184-33.656,8.287c-11.748,10.223-14.044,24.922-11.765,39.618
			c3.046-1.284,6.092-2.569,9.139-3.853c-9.73-14.011-22.132-37.911-42.437-36.089c-12.54,1.125-21.469,12.732-26.855,23.07
			c-3.051,5.856-5.379,12.418-5.764,19.033c-0.423,7.269,3.111,14.504,7.401,20.111c3.862,5.047,12.555,0.076,8.635-5.047
			c-3.463-4.526-5.947-9.258-6.036-15.064c-0.079-5.159,2.812-10.94,5.137-15.402c3.989-7.658,10.983-17.123,20.55-16.786
			c6.984,0.246,13.009,7.212,17.148,12.061c5.087,5.96,9.127,12.739,13.586,19.159c3.356,4.832,10.004,1.729,9.139-3.853
			c-1.902-12.267,0.879-22.654,10.368-30.91c5.551-4.83,18.109-10.475,23.504-2.751c4.12,5.898,5.05,14.464,5.655,21.449
			c1.124,12.975-1.497,25.998-2.976,38.836c-0.614,5.325,6.845,6.279,9.317,2.524c4.137-6.282,8.157-14.781,15.532-17.817
			c3.426-1.411,8.242-2.455,11.704-0.765c4.52,2.207,2.615,8.308,0.98,11.769c-3.474,7.357-9.942,13.81-10.6,22.313
			c-0.616,7.963,5.449,12.267,12.418,14.156c7.857,2.13,16.108,1.547,23.901,4.186c10.162,3.441,10.985,14.09,9.717,23.303
			c-1.178,8.563-3.98,18.74-10.017,25.209c-3.394,3.638-7.585,2.848-12.018,2.082c-5.071-0.876-10.057-2.211-15.095-3.252
			c-4.191-0.867-7.958,3.361-5.647,7.345c3.366,5.801,4.965,11.799,1.758,18.118c-2.511,4.948-5.669,11.023-11.28,12.903
			c-5.729,1.919-13.489-2.05-18.695-4.132c-5.785-2.314-11.812-7.044-15.143-12.263c-3.453-5.412-11.881-0.565-8.635,5.047
			c2.545,4.401,4.54,8.94,4.662,14.093c0.102,4.274-2.432,9.027-4.61,12.556c-5.689,9.217-15.507,11.236-25.524,9.099
			c-19.861-4.236-36.135-19.225-42.677-38.195c-1.255-3.638-7.236-5.504-9.139-1.194c-3.974,8.999-9.243,15.787-19.226,17.989
			c-8.252,1.821-22.05,0.409-26.833-7.529c-4.658-7.73,5.947-20.695,10.003-26.616c6.82-9.956,15.741-18.471,24.237-26.968
			c-2.357-2.357-4.714-4.714-7.071-7.071c-6.46,6.511-13.82,15.638-23.908,15.358c-6.298-0.175-21.207-1.141-20.926-9.91
			c0.244-7.613,8.315-15.392,13.449-20.269c8.084-7.68,18.117-13.286,29.3-14.585c5.172-0.601,7.309-8.586,1.329-9.821
			c-4.629-0.956-9.573-2.099-13.306-5.177c-5.371-4.428-5.319-11.865-3.585-17.936c1.601-5.603,6.198-12.213,12.672-12.229
			c6.17-0.015,12.365,8.877,16.217,12.784C242.601,342.461,249.668,335.387,245.139,330.792L245.139,330.792z"/>
	</g>
</g>
<g>
	<g>
		<path fill="#000BD3" d="M255.743,474.617c0,11.188,0,22.376,0,33.565c0,6.449,10,6.449,10,0c0-11.188,0-22.376,0-33.565
			C265.743,468.168,255.743,468.168,255.743,474.617L255.743,474.617z"/>
	</g>
</g>
<g>
	<g>
		<path fill="#000BD3" d="M226.714,471.895c0,9.676,0,19.353,0,29.029c0,6.449,10,6.449,10,0c0-9.676,0-19.353,0-29.029
			C236.714,465.446,226.714,465.446,226.714,471.895L226.714,471.895z"/>
	</g>
</g>
<g>
	<g>
		<path fill="#000BD3" d="M375.487,459.195c0,10.281,0,20.562,0,30.843c0,6.449,10,6.449,10,0c0-10.281,0-20.562,0-30.843
			C385.487,452.746,375.487,452.746,375.487,459.195L375.487,459.195z"/>
	</g>
</g>
<g>
	<g>
		<path fill="#000BD3" d="M339.201,469.174c0,7.56,0,15.119,0,22.679c0,6.449,10,6.449,10,0c0-7.56,0-15.119,0-22.679
			C349.201,462.725,339.201,462.725,339.201,469.174L339.201,469.174z"/>
	</g>
</g>
<g>
	<g>
		<path fill="#000BD3" d="M209.977,344.321c-11.591-6.523-23.812-13.59-37.307-14.95c-12.839-1.294-23.991,3.166-33.015,12.232
			c-12.168,12.225-20.693,36.98-3.785,48.879c12.03,8.466,31.014,4.673,43.866,0.514c7.273-2.354,14.337-5.676,20.152-10.697
			c8.245-7.12,9.717-18.658,9.784-28.879c0.042-6.45-9.958-6.446-10,0c-0.055,8.362-0.873,17.286-8.005,22.79
			c-4.276,3.3-9.516,5.439-14.589,7.143c-9.9,3.326-23.396,6.384-33.452,2.001c-14.644-6.383-4.311-26.709,3.1-34.68
			c17.011-18.295,40.433-5.718,58.203,4.282C210.557,356.122,215.596,347.483,209.977,344.321L209.977,344.321z"/>
	</g>
</g>
</svg>
