<?xml version="1.0" encoding="utf-8"?>
<!-- Generator: Adobe Illustrator 22.0.1, SVG Export Plug-In . SVG Version: 6.00 Build 0)  -->
<svg version="1.1" id="Calque_1" xmlns="http://www.w3.org/2000/svg" xmlns:xlink="http://www.w3.org/1999/xlink" x="0px" y="0px"
	 viewBox="0 0 283.5 283.5" style="enable-background:new 0 0 283.5 283.5;" xml:space="preserve">
<style type="text/css">
	.st0{fill:#FFFFFF;}
	.st1{fill:#324999;}
</style>
<g>
	<path class="st0" d="M101,196.2c-9.1-31.5-15.5-63.6-19.1-95.9c32.6,20.9,66.4,40.3,101.2,58.2c-10.6,5.8-21.1,11.6-31.7,17.4
		c13,8.1,25.9,16.3,38.9,24.4c-9.2,5.3-18.4,10.6-27.6,16c-10-10.5-20.8-20.5-32.2-29.8c-7.4,9.6-16.8,18-27.5,24.7
		c-0.3-4.8-0.8-9.6-1.4-14.3"/>
	<g>
		<path class="st1" d="M103.4,195.5c-8.9-31.2-15.4-63-19-95.2c-1.3,0.7-2.5,1.4-3.8,2.2c32.8,21,66.6,40.4,101.2,58.2
			c0-1.4,0-2.9,0-4.3c-10.6,5.8-21.1,11.6-31.7,17.4c-1.7,0.9-1.5,3.4,0,4.3c13,8.1,25.9,16.3,38.9,24.4c0-1.4,0-2.9,0-4.3
			c-9.2,5.3-18.4,10.6-27.6,16c1,0.1,2,0.3,3,0.4c-10.1-10.6-20.9-20.5-32.2-29.8c-0.9-0.8-2.6-1.1-3.5,0
			c-7.6,9.7-16.6,17.7-27,24.3c1.3,0.7,2.5,1.4,3.8,2.2c-0.3-4.8-0.8-9.6-1.4-14.3c-0.4-3.2-5.4-3.2-5,0c0.6,4.8,1,9.5,1.4,14.3
			c0.1,1.8,2.1,3.2,3.8,2.2c10.7-6.8,20.2-15.1,28-25.1c-1.2,0-2.4,0-3.5,0c11.3,9.3,22,19.2,32.2,29.8c0.8,0.8,2.1,0.9,3,0.4
			c9.2-5.3,18.4-10.6,27.6-16c1.7-1,1.6-3.3,0-4.3c-13-8.1-25.9-16.3-38.9-24.4c0,1.4,0,2.9,0,4.3c10.6-5.8,21.1-11.6,31.7-17.4
			c1.6-0.9,1.7-3.5,0-4.3c-34.7-17.8-68.4-37.2-101.2-58.2c-1.5-0.9-4,0.3-3.8,2.2c3.7,32.7,10.2,64.9,19.2,96.6
			C99.4,199.9,104.3,198.6,103.4,195.5L103.4,195.5z"/>
	</g>
</g>
</svg>
